<svg width="186" height="146" viewBox="0 0 186 146" fill="none" xmlns="http://www.w3.org/2000/svg">
<path d="M161.678 58.6826C162.181 57.653 163.227 57 164.373 57H181.195C183.413 57 184.864 59.3244 183.89 61.3174L143.322 144.317C142.819 145.347 141.773 146 140.627 146H123.805C121.587 146 120.136 143.676 121.11 141.683L161.678 58.6826Z" fill="#FAFAFA"/>
<path d="M43.1776 1.68264C43.6809 0.652973 44.7268 0 45.8729 0H73H114.072C116.32 0 117.77 2.38066 116.737 4.37745L73.8386 87.3775C73.3235 88.3741 72.2954 89 71.1735 89H44H5.30546C3.08713 89 1.63606 86.6756 2.61017 84.6826L43.1776 1.68264Z" fill="#FAFAFA"/>
<path d="M110.678 58.6826C111.181 57.653 112.227 57 113.373 57H140.5H149.719C151.931 57 153.382 59.313 152.42 61.3051L112.319 144.305C111.818 145.341 110.769 146 109.618 146H72.8055C70.5871 146 69.1361 143.676 70.1102 141.683L110.678 58.6826Z" fill="#FAFAFA"/>
</svg>
