<svg width="100" height="101" viewBox="0 0 100 101" fill="none" xmlns="http://www.w3.org/2000/svg">
<g opacity="0.5">
<path d="M94.7573 73.8701H52.2412C43.234 64.7681 34.3297 60.6973 23.4179 60.6973C22.5344 60.6973 21.6849 60.7312 20.8554 60.7861L33.3284 34.0402H53.9921C54.8186 34.0402 55.4894 33.3704 55.4894 32.5428V23.5037C55.4894 22.6762 54.8186 22.0064 53.9921 22.0064H31.2102C31.1872 21.9824 31.1782 21.9505 31.1533 21.9275L17.7049 9.62116C17.094 9.06315 16.1477 9.10407 15.5897 9.715C15.0307 10.3249 15.0726 11.2723 15.6835 11.8303L26.8029 22.0064H21.3815C20.5539 22.0064 19.8841 22.6762 19.8841 23.5037V32.5428C19.8841 33.3704 20.5539 34.0402 21.3815 34.0402H30.0243L17.3546 61.2054C8.90344 62.7047 4.02502 67.5432 3.61774 75.0081C3.58879 75.1239 3.56982 75.2427 3.56982 75.3674V89.0993C3.56982 89.9258 4.23965 90.5966 5.06719 90.5966H94.7573C95.5839 90.5966 96.2547 89.9258 96.2547 89.0993V75.3674C96.2547 74.5409 95.5839 73.8701 94.7573 73.8701ZM22.8788 25.0011H52.4947V31.0455H22.8788V25.0011ZM23.4179 63.691C32.7255 63.691 40.2113 66.7756 47.9258 73.8691H6.72627C8.05493 65.0786 17.5732 63.691 23.4179 63.691ZM93.26 87.6019H6.56455V76.8648H93.26V87.6019Z" fill="black"/>
</g>
</svg>
